<svg height="479pt" viewBox="0 -28 479.96702 479" width="479pt" xmlns="http://www.w3.org/2000/svg" xmlns:xlink="http://www.w3.org/1999/xlink"><linearGradient id="a" gradientUnits="userSpaceOnUse" x1="124.920802" x2="284.408802" y1="315.518032" y2="156.038032"><stop offset="0" stop-color="#ee83ef"/><stop offset="1" stop-color="#41dfd0"/></linearGradient><path d="m2.128906 56.933594c.128906.425781.289063.800781.414063 1.234375 2.328125 7.445312 4.882812 14.855469 7.585937 22.214843.800782 2.269532 1.710938 4.457032 2.566406 6.695313 2.136719 5.601563 4.386719 11.164063 6.761719 16.6875.449219 1.03125.800781 2.144531 1.289063 3.199219 3.117187 7.203125 6.0625 13.601562 8.949218 19.449218 1.539063 3.199219 3.203126 6.335938 4.800782 9.511719 6.890625 13.433594 14.457031 26.230469 22.351562 38.472657-.054687.324218-.09375.648437-.109375.976562l2.160157 52.421875c.5 12.296875 4.835937 24.128906 12.398437 33.839844 6.054687 7.851562 16.378906 11.074219 25.824219 8.058593 9.445312-3.015624 15.992187-11.621093 16.375-21.527343 38.679687 43.695312 82.617187 82.433593 130.816406 115.335937 27.183594 18.4375 56.667969 33.238282 87.695312 44.015625 10.871094 8.949219 24.09375 14.570313 38.082032 16.183594 7.722656.917969 15.53125.917969 23.253906 0 .152344 0 .328125.054687.472656.054687.546875-.0625 1.082032-.179687 1.601563-.359374 9-1.132813 17.8125-3.445313 26.207031-6.878907l9.464844-3.914062c15.261718-6.328125 28.796875-16.199219 39.488281-28.800781l4.382813-5.167969c7.023437-8.3125 6.613281-20.59375-.957032-28.414063-7.570312-7.824218-19.832031-8.636718-28.371094-1.886718-13.925781 11.058593-30.675781 17.988281-48.34375 20l-33.28125-26.824219c-31.214843-27.425781-59.839843-57.664063-85.519531-90.328125-.046875-.058594-.0625-.136719-.113281-.203125-6.621094-8.382813-13.367188-17.375-20.046875-26.71875-.109375-.160157-.289063-.253907-.414063-.40625-13.910156-19.4375-26.769531-39.605469-38.519531-60.417969l-.144531-.238281-11.601562-20.578125c1.273437.394531 2.488281.921875 3.792968 1.242187 9.519532 2.394531 19.507813-1.527343 24.859375-9.753906 5.347657-8.230469 4.878907-18.949219-1.171875-26.679687-8.765625-11.25-21.1875-19.078126-35.121094-22.128907l-42.238281-9.277343c-.996093-.1875-2.019531-.1875-3.015625 0-5.730468-5.738282-11.714844-11.449219-18.402344-17.351563-10.933593-9.691406-22.621093-19.097656-34.757812-28-.253906-.242187-.519531-.460937-.800781-.664063-2.726563-1.992187-5.535157-3.859374-8.304688-5.785156-8.910156-6.234375-17.894531-12.226562-26.878906-17.601562l-.800781-.464844c-.113282-.0625-.230469-.09375-.34375-.160156l-.113282-.054688c-13.03125-7.3125-28.945312-7.273437-41.941406.105469l-.800781.429687c-.472656.28125-.976563.496094-1.441406.800782-1.246094.800781-2.398438 1.601562-3.679688 2.578125-1.640625 1.296875-3.179687 2.710937-4.617187 4.230469-.175782.183593-.34375.375-.511719.558593-10.53125 11.371094-14.066406 27.5625-9.230469 42.289063zm14.464844-18.441406c.128906-.644532.277344-1.285157.453125-1.917969.324219-1.167969.726563-2.3125 1.203125-3.425781.363281-.847657.769531-1.679688 1.214844-2.488282.554687-1.003906 1.175781-1.976562 1.855468-2.902344.433594-.589843.886719-1.160156 1.375-1.710937.871094-.996094 1.816407-1.921875 2.824219-2.777344.289063-.238281.539063-.519531.800781-.75 8.824219-6.816406 20.847657-7.757812 30.625-2.402343l.335938.167968c5.496094 3.320313 10.976562 6.800782 16.398438 10.402344 1.320312.871094 2.625 1.816406 3.945312 2.710938 3.457031 2.34375 6.902344 4.71875 10.304688 7.199218l-.226563 6.785156c-.578125 17.128907 10.472656 32.492188 26.898437 37.390626l17.710938 5.28125c12.984375 3.867187 23.324219 13.722656 27.808594 26.503906 1.75 4.046875.664062 8.761718-2.679688 11.640625-3.234375 2.238281-7.574218 2-10.542968-.578125l-10.402344-8.976563c-5.089844-4.398437-11.761719-6.523437-18.460938-5.871093-6.699218.652343-12.839844 4.019531-16.988281 9.320312l-6.605469 8.433594c-1.015625 1.289062-2.378906 2.269531-3.929687 2.816406-10.355469 3.625-21.722657 3.011719-31.632813-1.707031l-11.359375-5.421875c-.238281-.472656-.472656-.953125-.71875-1.425782-2.667969-5.246093-5.222656-10.539062-7.664062-15.878906-.398438-.878906-.800781-1.839844-1.222657-2.742187-2.230468-4.945313-4.382812-9.933594-6.457031-14.960938-.257812-.640625-.535156-1.257812-.800781-1.898437-2.222656-5.488282-4.320312-11.039063-6.34375-16.628906-.457031-1.273438-.910156-2.546876-1.367188-3.832032-2.007812-5.722656-3.953124-11.480468-5.761718-17.3125-.792969-2.59375-1.1875-5.289062-1.175782-8 .039063-1.695312.234376-3.382812.585938-5.042968zm219.199219 181.601562-5.816407.105469c-5.296874.171875-10.34375-2.242188-13.535156-6.472657-3.0625-3.933593-4.214844-9.027343-3.152344-13.898437l2.398438-11.054687c6.453125 10.679687 13.152344 21.113281 20.097656 31.304687zm8.464843 59.242188-12.378906 1.492187c-7.898437.949219-15.714844-2.304687-20.605468-8.582031l-13.054688-16.800782c-10.902344-14.050781-24.394531-25.882812-39.753906-34.847656l-9.238282-5.398437c-1.867187-1.09375-3.183593-2.925781-3.617187-5.042969l-.695313-3.445312c-.535156-2.585938.324219-5.261719 2.261719-7.050782 1.394531-1.300781 3.222657-2.039062 5.128907-2.0625.699218 0 1.394531.097656 2.0625.289063.28125.070312.570312.078125.851562.144531.523438.140625 1.058594.234375 1.597656.277344 11.386719 1.875 22.457032-4.785156 26.128906-15.726563l10.710938-32.113281.382812.6875 9.714844 17.25-6.121094 28c-2.109374 9.6875.277344 19.808594 6.492188 27.535156 6.214844 7.726563 15.59375 12.226563 25.507812 12.242188h.566407l14.546875-.257813c.746094-.03125 1.496094.019531 2.230468.152344 5.488282 7.671875 11.199219 15.257813 17.015626 22.609375-.1875 2.742188-.894532 5.429688-2.078126 7.910156-3.316406 6.992188-9.984374 11.792969-17.664062 12.71875zm-67.601562-155.640626c2.160156 2.65625 4.296875 5.285157 6.402344 8l-15.257813 45.773438c-.925781 2.730469-3.3125 4.703125-6.167969 5.097656l-42.089843-53.847656c2.347656-.222656 4.683593.519531 6.472656 2.054688l10.402344 8.976562c8.457031 7.273438 20.738281 7.972656 29.96875 1.703125 5.878906-4.113281 9.636719-10.613281 10.269531-17.757813zm-82.007812 129.488282c-3.359376 2.539062-8.132813 1.917968-10.734376-1.394532-5.515624-7.082031-8.675781-15.714843-9.035156-24.6875l-1.148437-28c2.71875 3.703126 5.398437 7.402344 8.367187 11.199219l2.535156 3.273438.367188.480469c.050781.09375.101562.1875.160156.28125 7.171875 9.09375 11.476563 20.113281 12.367188 31.660156-.003906.402344.023437.804687.082031 1.203125-.019531 2.339843-1.113281 4.546875-2.960937 5.984375zm3.25-48.546875-3.203126-4.101563c-8.167968-10.519531-15.253906-20.464844-21.734374-30.488281-4.488282-6.746094-8.800782-13.761719-13.015626-20.953125 11.714844 3.652344 24.300782 3.414062 35.871094-.671875 4.417969-1.546875 8.304688-4.320313 11.199219-8l.671875-.855469 34.722656 44.351563c-9.9375 4.453125-15.414062 15.238281-13.152344 25.886719l.695313 3.449218c1.308594 6.613282 5.382813 12.347656 11.199219 15.753906l9.234375 5.40625c13.59375 7.9375 25.542969 18.410157 35.199219 30.847657l13.054687 16.800781c7.359375 9.40625 18.632813 14.90625 30.578125 14.917969 1.53125.003906 3.0625-.089844 4.582031-.269531l12.375-1.503907c.800781-.097656 1.601563-.289062 2.335938-.433593 5.601562 4.617187 11.6875 9.394531 18.960937 14.847656l73.503906 54.800781-6.496093-.761719c-7.484375-7.367187-17.164063-12.109375-27.574219-13.503906-2.683594-.347656-5.128906-1.726562-6.808594-3.847656l-11.871094-15.351563c-6.921874-8.898437-18.753906-12.375-29.386718-8.632812-8.8125 3.039062-15.3125 10.585937-17.007813 19.753906-54.363281-38.621094-102.847656-84.914063-143.933593-137.441406zm210.398437 167.203125c1.128906 3.730468 2.554687 7.363281 4.265625 10.871094-19.355469-8.386719-37.9375-18.453126-55.53125-30.089844l.363281-6.085938c.222657-4.253906 3.070313-7.921875 7.136719-9.191406s8.496094.125 11.101562 3.496094l11.886719 15.335937c4.257813 5.414063 10.460938 8.945313 17.289063 9.839844 1.226562.195313 2.4375.464844 3.632812.796875-.59375 1.605469-.652344 3.359375-.175781 5zm147.328125-10.929688c2.089844-1.671875 5.105469-1.480468 6.96875.4375 1.863281 1.917969 1.960938 4.941406.230469 6.976563l-4.382813 5.167969c-9.046875 10.652343-20.496094 19-33.402344 24.355468l-9.460937 3.910156c-13.777344 5.683594-28.773437 7.777344-43.578125 6.082032-18.195312-2.09375-34.296875-12.761719-43.3125-28.707032l45 5.234376c29.339844 3.378906 58.816406-5.070313 81.90625-23.480469zm-101.886719-7.136718 3.253907 2.625-79.945313-59.601563c-4.414063-3.3125-8.375-6.398437-12.0625-9.285156 4.800781-3.65625 8.671875-8.390625 11.304687-13.816407 23.621094 28.710938 49.511719 55.484376 77.414063 80.054688zm-131.203125-236.542969c.957032 1.222656 1.476563 2.734375 1.472656 4.289062-.027343 2.980469-1.921874 5.628907-4.734374 6.613281-1.285157.464844-2.679688.527344-4 .183594-10.582032-2.613281-20.15625-8.289062-27.527344-16.320312-1.089844-1.238282-2.113282-2.46875-3.128906-3.78125-.265626-.339844-.558594-.65625-.878907-.945313-3.25-3.863281-6.609375-7.609375-9.96875-11.335937l22.75 5c10.289063 2.226562 19.472657 7.984375 25.960938 16.273437zm-95.582031-45.519531-7.746094-2.351563c-7.6875-2.304687-13.464843-8.683594-15-16.5625 7.410157 5.792969 14.671875 11.707031 21.546875 17.785156.390625.375.742188.742188 1.144532 1.105469zm0 0" fill="url(#a)"/></svg>