<svg xmlns="http://www.w3.org/2000/svg" viewBox="0 0 40 40" width="80" height="80"><path fill="#b6dcfe" d="M20,38.5C9.8,38.5,1.501,30.201,1.501,20c0-0.489,0-0.951,0.09-1.402 c0.405-5.142,2.534-9.376,6.207-12.435c-1.696,2.742-2.45,5.598-2.297,8.661c0.332,4.531,3.099,8.254,6.437,8.671 c0.145,0.008,0.248,0.011,0.349,0.011c3.844,0,5.213-3.361,5.213-6.507c0-3.755-1.75-6.815-4.617-8.176l2.168-2.168 c1.111,0.816,2.456,1.884,3.524,3.607l0.925,1.492V10c0-1.191-0.771-4.079-1.865-5.928L20,1.707l2.365,2.365 C21.271,5.921,20.5,8.809,20.5,10v1.755l0.925-1.492c1.083-1.747,2.45-2.82,3.524-3.608l2.168,2.168 C24.25,10.185,22.5,13.245,22.5,17c0,0.669,0.084,2.388,0.86,3.893c0.882,1.71,2.387,2.614,4.354,2.614 c0.101,0,0.205-0.002,0.31-0.007c3.387-0.422,6.154-4.059,6.476-8.463c0.157-3.135-0.625-6.116-2.328-8.899 c3.692,3.059,5.831,7.294,6.229,12.401c0.099,0.51,0.099,0.972,0.099,1.461C38.499,30.201,30.2,38.5,20,38.5L20,38.5z"/><path fill="#4788c7" d="M20,2.414l1.742,1.742C20.68,6.12,20,8.834,20,10v3.511l1.85-2.984 c0.923-1.488,2.074-2.475,3.051-3.212l1.384,1.384C23.609,10.268,22,13.32,22,17c0,3.232,1.496,7.007,5.714,7.007 c0.108,0,0.219-0.003,0.332-0.008l0.039-0.002l0.039-0.005c3.638-0.455,6.528-4.206,6.875-8.942c0.111-2.23-0.238-4.385-1.043-6.45 c2.297,2.709,3.642,6.082,3.946,9.978l0.005,0.06l0.012,0.059c0.081,0.403,0.081,0.841,0.081,1.304c0,9.925-8.074,17.999-17.999,18 c-9.925-0.001-17.999-8.075-17.999-18c0-0.463,0-0.901,0.081-1.304l0.012-0.059l0.005-0.06c0.302-3.863,1.626-7.212,3.888-9.909 c-0.767,1.983-1.091,4.04-0.982,6.204c0.348,4.753,3.302,8.673,6.872,9.119l0.039,0.005l0.039,0.002 c0.113,0.005,0.223,0.008,0.332,0.008C16.504,24.007,18,20.232,18,17c0-3.68-1.609-6.732-4.285-8.301l1.384-1.384 c0.977,0.737,2.128,1.724,3.051,3.212L20,13.511V10c0-1.166-0.68-3.88-1.742-5.843L20,2.414 M20,1l-3,3c1.2,1.8,2,4.9,2,6 c-1.256-2.026-2.9-3.2-4-4l-3,3c3.1,1.1,5,4.2,5,8c0,1.76-0.574,6.007-4.714,6.007c-0.094,0-0.189-0.002-0.286-0.007 c-3.2-0.4-5.699-4.1-5.999-8.2c-0.2-4,1.2-7.5,4-10.8c-5.2,3.1-8.4,8.1-8.9,14.5c-0.1,0.5-0.1,1-0.1,1.5 c0,10.5,8.499,18.999,18.999,19c10.499-0.001,18.999-8.5,18.999-19c0-0.5,0-1-0.1-1.5c-0.5-6.4-3.7-11.4-8.9-14.5 c2.8,3.3,4.201,7,4.001,11c-0.3,4.1-2.8,7.6-6,8c-0.097,0.004-0.193,0.007-0.286,0.007C23.573,23.007,23,18.76,23,17 c0-3.8,1.9-6.9,5-8l-3-3c-1.1,0.8-2.744,1.974-4,4c0-1.1,0.8-4.2,2-6L20,1L20,1z"/></svg>