<svg height="512pt" viewBox="0 0 512 512" width="512pt" xmlns="http://www.w3.org/2000/svg"><path d="m133.015625 378.980469c0 66.484375 52.75 120.636719 118.671875 122.898437.867188.019532 1.730469.03125 2.609375.03125.539063.007813 1.085937.007813 1.625.007813 135.828125 0 245.929687-110.101563 245.929687-245.917969s-110.101562-245.917969-245.929687-245.917969c-.539063 0-1.085937 0-1.625.007813h-.210937c66.304687 1.847656 119.476562 56.171875 119.476562 122.929687 0 33.949219-13.753906 64.6875-35.996094 86.941407-22.222656 22.230468-52.929687 35.996093-86.847656 36.039062h5.140625c-67.855469.0625-122.84375 55.101562-122.84375 122.980469zm0 0" fill="#fff"/><path d="m10.023438 255.9375c0 88.058594 48.792968 171.996094 125.988281 214.757812.042969.023438.074219.042969.117187.066407 35.324219 19.621093 75.121094 30.390625 115.550782 31.054687-50.203126-1.71875-95.441407-35.101562-111.910157-82.5625-16.644531-47.96875-1.316406-102.605468 37.710938-135.007812 21.917969-18.195313 49.882812-28.28125 78.367187-28.304688h-5.140625c54.820313-.070312 104.195313-37.832031 118.566407-90.746094 12.816406-47.195312-4.292969-98.675781-42.664063-128.902343-20.632813-16.25-46.28125-25.53125-72.535156-26.261719-41.234375.277344-81.921875 11.078125-117.945313 31.089844-.042968.019531-.074218.042968-.117187.0625-77.195313 42.761718-125.988281 126.699218-125.988281 214.753906zm0 0" fill="#535272"/><path d="m306.679688 121.933594c0 26.292968-21.316407 47.609375-47.609376 47.609375-26.289062 0-47.605468-21.316407-47.605468-47.609375 0-26.292969 21.316406-47.605469 47.605468-47.605469 26.292969 0 47.609376 21.3125 47.609376 47.605469zm0 0" fill="#fff"/><path d="m306.679688 377.398438c0 26.292968-21.316407 47.605468-47.609376 47.605468-26.289062 0-47.605468-21.3125-47.605468-47.605468 0-26.292969 21.316406-47.609376 47.605468-47.609376 26.292969 0 47.609376 21.316407 47.609376 47.609376zm0 0" fill="#fff"/><path d="m436.953125 74.980469c-48.355469-48.351563-112.648437-74.980469-181.03125-74.980469-.570313 0-1.148437 0-1.722656.0117188h-.113281c-.003907 0-.007813 0-.011719 0-.003907 0-.007813 0-.007813 0-42.722656.2851562-85.167968 11.4687502-122.75 32.3437502-.011718.003906-.019531.007812-.027344.011719-4.777343 2.574218-6.679687 8.496093-4.234374 13.382812 2.492187 4.980469 8.546874 7 13.523437 4.507812.160156-.078124.304687-.15625.441406-.234374.023438-.007813.042969-.019532.0625-.03125 34.574219-19.207032 73.597657-29.515626 112.875-29.820313.148438.003906.296875.015625.445313.019531 1.230468.039063 2.460937.101563 3.6875.183594.21875.011719.4375.027344.65625.042969 19.304687 1.394531 38.15625 7.835937 54.28125 18.503906.144531.097656.289062.195313.429687.292969.867188.578125 1.722657 1.179687 2.570313 1.78125.757812.542968 1.511718 1.09375 2.257812 1.652344.359375.269531.71875.539062 1.074219.8125 2.078125 1.601562 4.109375 3.28125 6.085937 5.035156.027344.023437.054688.046875.082032.074218.664062.589844 1.320312 1.1875 1.972656 1.792969.6875.648438 1.371094 1.292969 2.042969 1.957031.226562.222657.453125.453126.675781.675782 23.289062 23.367187 35.367188 56.441406 32.894531 89.160156-.003906.023438-.003906.046875-.007812.070312-.078125 1.042969-.183594 2.089844-.292969 3.132813-.058594.53125-.113281 1.058594-.175781 1.585937-.019531.164063-.046875.328126-.066407.492188-.71875 5.691406-1.871093 11.28125-3.425781 16.738281-.207031.710938-.410156 1.425781-.628906 2.132813-.128906.421875-.265625.84375-.402344 1.265625-6.964843 21.488281-20.675781 40.824219-39.023437 54.863281-18.488282 14.148438-40.941406 22.359375-63.6875 23.375-.085938.003906-.171875.003906-.253906.007812-1.441407.058594-2.886719.09375-4.328126.097657-.039062 0-.078124 0-.113281.003906-.675781 0-1.332031.066406-1.96875.191406-19.929687 1.074219-38.707031 6.566407-55.375 15.5-.246093.128907-.488281.265625-.730469.398438-1.105468.597656-2.203124 1.214843-3.289062 1.84375-.742188.433593-1.480469.875-2.21875 1.320312-.578125.355469-1.160156.710938-1.734375 1.070313-4.964844 3.109375-9.75 6.535156-14.289063 10.304687-4.625 3.839844-8.921874 7.972657-12.917968 12.332031-.332032.359376-.664063.714844-.988282 1.078126-.445312.492187-.886718.988281-1.324218 1.488281-20.492188 23.417969-32.933594 54.054687-32.933594 87.53125 0 34.734375 13.300781 67.597656 37.453125 92.542969.046875.046874.089844.09375.136719.140624-6.613282-2.917968-13.105469-6.136718-19.445313-9.65625-.027343-.015624-.058593-.035156-.089843-.050781-.019532-.007812-.039063-.019531-.054688-.03125-36.207031-20.058593-66.671875-50.023437-88.105469-86.652343-21.371093-36.523438-32.667969-77.765626-32.667969-119.273438 0-28.8125 5.367188-57.285156 15.949219-84.617188 10.449219-26.992187 25.472657-51.578124 44.644531-73.074218 3.707032-4.15625 3.34375-10.527344-.8125-14.230469-4.152343-3.707031-10.527343-3.34375-14.230468.8125-20.792969 23.304687-37.078125 49.957031-48.402344 79.210937-11.488281 29.664063-17.3125 60.585938-17.3125 91.898438 0 45.082031 12.25 89.847656 35.425781 129.457031 23.265625 39.757813 56.378907 72.304688 95.761719 94.117188.027344.015625.054688.03125.082031.046875.019531.011718.035157.019531.054688.03125 36.761719 20.414062 78.269531 31.578125 120.046875 32.300781h.070312c.917969.023437 1.835938.035156 2.761719.035156.570313.011719 1.148437.011719 1.71875.011719 68.382813 0 132.675781-26.628906 181.027344-74.980469 48.355469-48.351562 74.984375-112.636719 74.984375-181.019531 0-68.378906-26.628906-132.667969-74.980469-181.019531zm-14.257813 347.78125c-44.546874 44.546875-103.773437 69.078125-166.773437 69.078125-.472656 0-.957031 0-1.433594-.007813-.839843-.023437-1.671875-.011719-2.402343-.027343h-.003907c-1.40625-.050782-2.808593-.125-4.207031-.230469-.066406-.003907-.132812-.007813-.199219-.011719-44.464843-3.300781-83.625-33.199219-98.324219-75.554688-7.484374-21.570312-8.121093-44.851562-1.835937-67.320312 4.683594-16.746094 12.890625-31.890625 24.046875-44.5625.132812-.148438.265625-.296875.398438-.445312.675781-.765626 1.375-1.511719 2.074218-2.253907.632813-.671875 1.273438-1.332031 1.921875-1.984375.113281-.113281.226563-.226562.335938-.339844 5.066406-5.054687 10.601562-9.632812 16.542969-13.65625.582031-.390624 1.164062-.777343 1.75-1.15625.738281-.476562 1.476562-.949218 2.226562-1.410156.984375-.609375 1.972656-1.210937 2.976562-1.785156.25-.144531.503907-.28125.753907-.421875 15.339843-8.652344 32.597656-13.652344 50.316406-14.46875.128906-.007813.261719-.011719.394531-.015625 1.550782-.066406 3.105469-.105469 4.660156-.105469.3125 0 .621094-.019531.921876-.050781h.03125c.339843-.03125.671874-.082031.996093-.148438 32.824219-1.761718 63.429688-15.382812 86.832031-38.796874 15.3125-15.320313 26.421876-33.726563 32.769532-53.808594.050781-.15625.097656-.3125.148437-.46875.449219-1.449219.882813-2.90625 1.285157-4.371094.050781-.183594.113281-.363281.160156-.542969.128906-.476562.238281-.957031.359375-1.433593.152343-.578126.296875-1.160157.4375-1.742188.648437-2.652344 1.210937-5.3125 1.683593-7.984375.109376-.59375.207032-1.191406.308594-1.789063.109375-.675781.222656-1.347656.324219-2.023437.199219-1.34375.375-2.695313.535156-4.046875.019531-.179688.039063-.355469.058594-.535156.574219-5.050782.875-10.164063.875-15.324219 0-34.886719-13.398437-67.855469-37.730469-92.839844-.359375-.363281-.734375-.710937-1.09375-1.074219-.722656-.734374-1.457031-1.453124-2.199218-2.167968-.230469-.21875-.449219-.453125-.679688-.667969 29.914062 11.699219 57.359375 29.574219 80.757812 52.96875 44.542969 44.542969 69.078126 103.769531 69.078126 166.765625 0 62.992188-24.535157 122.21875-69.078126 166.761719zm0 0"/><path d="m430.515625 127.808594-.441406-.105469c-5.417969-1.273437-10.847657 2.085937-12.121094 7.503906-1.273437 5.421875 2.085937 10.847657 7.507813 12.121094l.441406.105469c.777344.183594 1.554687.269531 2.316406.269531 4.574219 0 8.714844-3.132813 9.804688-7.777344 1.273437-5.417969-2.085938-10.84375-7.507813-12.117187zm0 0"/><path d="m100.570312 74.960938.445313.105468c.777344.179688 1.550781.269532 2.316406.269532 4.570313 0 8.710938-3.132813 9.800781-7.777344 1.277344-5.417969-2.085937-10.84375-7.503906-12.121094l-.445312-.101562c-5.417969-1.277344-10.84375 2.085937-12.117188 7.503906-1.277344 5.421875 2.085938 10.847656 7.503906 12.121094zm0 0"/><path d="m316.757812 121.933594c0-31.808594-25.878906-57.6875-57.6875-57.6875-31.808593 0-57.6875 25.878906-57.6875 57.6875s25.878907 57.6875 57.6875 57.6875c31.808594 0 57.6875-25.878906 57.6875-57.6875zm-95.210937 0c0-20.691406 16.835937-37.523438 37.527344-37.523438 20.691406 0 37.523437 16.832032 37.523437 37.523438s-16.832031 37.527344-37.523437 37.527344c-20.691407 0-37.527344-16.835938-37.527344-37.527344zm0 0"/><path d="m259.074219 319.710938c-31.808594 0-57.6875 25.878906-57.6875 57.6875 0 31.808593 25.878906 57.6875 57.6875 57.6875 31.808593 0 57.6875-25.878907 57.6875-57.6875 0-31.808594-25.882813-57.6875-57.6875-57.6875zm0 95.210937c-20.691407 0-37.527344-16.832031-37.527344-37.523437 0-20.695313 16.835937-37.527344 37.527344-37.527344 20.691406 0 37.523437 16.832031 37.523437 37.527344 0 20.691406-16.832031 37.523437-37.523437 37.523437zm0 0"/><path d="m456.285156 169.765625c-2.121094-5.144531-8.011718-7.597656-13.160156-5.476563-5.148438 2.121094-7.601562 8.011719-5.480469 13.160157 7.621094 18.488281 16.269531 48.128906 14.203125 84.363281-.316406 5.558594 3.933594 10.320312 9.492188 10.636719.195312.011719.390625.019531.582031.019531 5.304687 0 9.75-4.144531 10.054687-9.507812 2.28125-40.023438-7.273437-72.769532-15.691406-93.195313zm0 0"/></svg>